# xmcd
#
# Track frame offsets:
#	150
#	20495
#	40417
#	44845
#	63026
#	78603
#	98013
#	114538
#	129959
#	147539
#	165283
#	179766
#	194679
#	210840
#	241162
#
# Disc length: 3455 seconds
#
# Revision: 1
# Processed by: cddbd v1.5.1PL0 Copyright (c) Steve Scherf et al.
# Submitted via: audiograbber 1.80
#
DISCID=d00d7d0f
DTITLE=Curly Musgrave - The Heritage
DYEAR=1900
DGENRE=
TTITLE0=Wheels
TTITLE1=The Ol' Fifty Mile
TTITLE2=The Heritage
TTITLE3=Stewards of the Range
TTITLE4=Escalante Adios
TTITLE5=Thanks
TTITLE6=No Cowboy Rides Alone
TTITLE7=Boys, Its Roundup Time
TTITLE8=The Line
TTITLE9=Father and Son
TTITLE10=Annie Laurie
TTITLE11=That Bright Texas Star
TTITLE12=Tho' I Am a Gringo
TTITLE13=Make My Heaven Colorado
TTITLE14=Satan Stallion
EXTD=
EXTT0=
EXTT1=
EXTT2=
EXTT3=
EXTT4=
EXTT5=
EXTT6=
EXTT7=
EXTT8=
EXTT9=
EXTT10=
EXTT11=
EXTT12=
EXTT13=
EXTT14=
PLAYORDER=
